<svg xmlns="http://www.w3.org/2000/svg" width="113" height="80"><path fill-rule="evenodd" d="M110.148 13.226c-1.29-4.857-5.09-8.682-9.916-9.98C91.484.886 56.409.886 56.409.886s-35.075 0-43.823 2.36C7.76 4.544 3.96 8.369 2.67 13.226.326 22.03.326 40.399.326 40.399s0 18.369 2.344 27.174c1.29 4.857 5.09 8.682 9.916 9.981 8.748 2.358 43.823 2.358 43.823 2.358s35.075 0 43.823-2.358c4.826-1.299 8.626-5.124 9.916-9.981 2.344-8.805 2.344-27.174 2.344-27.174s0-18.369-2.344-27.173" opacity=".502"/><path fill="#FFF" fill-rule="evenodd" d="M44.937 57.077V23.722L74.254 40.4z"/></svg>