<svg xmlns="http://www.w3.org/2000/svg" width="190" height="146"><path fill="#FC0" fill-rule="evenodd" d="M39.144 126.104a3.2 3.2 0 0 0-1.579.799l-12.383 11.51-.108.105-.038.034q-.08.066-.08.064c-1.356.778-7.645-2.479-13.173-12.053-5.53-9.577-5.203-16.655-3.859-17.431a1 1 0 0 1 .1-.04l.052-.019.03-.01.069-.021 16.13-5.188a3.2 3.2 0 0 0 1.438-.951l58.231-67.199a49 49 0 0 0 .384 6.057c1.322 10.757 5.9 23.349 12.891 35.458s15.607 22.37 24.262 28.893a49 49 0 0 0 5.011 3.337v-.001z"/><path fill="#FFF" fill-rule="evenodd" d="M134.57 55.672c14.018 24.28 15.413 46.035 7.897 50.374-7.515 4.339-25.658-7.747-39.676-32.027-14.018-24.279-15.413-46.034-7.897-50.373 7.515-4.339 25.658 7.746 39.676 32.026"/><path fill="#333" fill-rule="evenodd" d="M189.122 72.342c-.463.602-1.354 1.334-2.966 1.404l-21.728.941c-1.538.067-2.472-.531-2.984-1.045a3.333 3.333 0 0 1-.968-2.208c-.073-1.699 1.159-3.474 3.655-3.583l21.73-.941c1.528-.066 2.461.525 2.973 1.033.596.59.942 1.371.977 2.201a3.37 3.37 0 0 1-.689 2.198M176.31 35.88l-18.897 10.764c-1.337.761-2.441.656-3.131.433a3.32 3.32 0 0 1-1.86-1.504l-.011-.018c-.841-1.477-.556-3.619 1.615-4.857l18.898-10.764c2.163-1.232 4.139-.404 4.981 1.054.003.006.006-.888.01.017.846 1.486.567 3.637-1.605 4.875m-37.206-11.671c-.838 1.291-1.866 1.705-2.582 1.825a3.33 3.33 0 0 1-3.436-1.625c-.603-1.044-.666-2.468.276-3.923l11.829-18.25c.832-1.284 1.854-1.701 2.565-1.824a3.3 3.3 0 0 1 2.359.479 3.36 3.36 0 0 1 1.393 1.836c.222.726.302 1.877-.575 3.231zm13.899 63.721c1.437 11.696-1.168 20.097-7.336 23.658a12.7 12.7 0 0 1-3.258 1.315 3 3 0 0 1-.408.11L41.247 132.218l-11.662 10.84a8 8 0 0 1-.353.327l-.048.041a7 7 0 0 1-1.026.732c-6.7 3.868-16.097-4.314-21.917-14.395s-8.208-22.311-1.509-26.179a7 7 0 0 1 .993-.465q.122-.05.249-.092l.079-.025q.1-.034.198-.064l15.242-4.903L88.63 20.559q.148-.169.316-.313a12.7 12.7 0 0 1 2.748-2.143c6.167-3.561 14.746-1.615 24.156 5.477 8.655 6.523 17.271 16.783 24.262 28.892s11.569 24.701 12.891 35.458M84.358 41.761a49 49 0 0 1-.384-6.057l-58.231 67.199a3.2 3.2 0 0 1-1.438.951l-16.13 5.188-.069.021-.03.01-.052.019a1 1 0 0 0-.1.04c-1.344.776-1.671 7.854 3.859 17.431 5.528 9.574 11.817 12.831 13.173 12.053q0 .002.08-.064l.038-.034.108-.105 12.383-11.51c.441-.41.988-.687 1.579-.799l87.378-16.656a49 49 0 0 1-5.011-3.336c-8.655-6.523-17.271-16.784-24.262-28.893S85.68 52.518 84.358 41.761m10.536-18.115c-7.516 4.339-6.121 26.094 7.897 50.373 14.018 24.28 32.161 36.366 39.676 32.027s6.121-26.094-7.897-50.374-32.161-36.365-39.676-32.026"/></svg>