<svg xmlns="http://www.w3.org/2000/svg" width="45" height="45"><path fill="red" fill-rule="evenodd" d="M22.349 44.679C10.151 44.679.237 34.764.237 22.567.237 10.368 10.151.454 22.349.454c12.296 0 22.113 10.012 22.113 22.113 0 12.197-9.914 22.112-22.113 22.112m0-39.511c-9.67 0-17.398 7.922-17.398 17.399 0 9.573 7.825 17.397 17.398 17.397s17.399-7.824 17.399-17.397c0-9.574-7.825-17.399-17.399-17.399m.028 9.177q-1.614 0-2.174-.532-.56-.531-.56-1.917 0-1.443.579-2.003t2.193-.56q1.594 0 2.164.541.569.54.569 1.927 0 1.443-.588 1.993-.589.55-2.183.551m-1.87 2.648q.275-.104.731-.161a9 9 0 0 1 1.158-.057q.702 0 1.158.057.455.056.731.161t.389.247a.5.5 0 0 1 .114.332v16.896a.5.5 0 0 1-.114.332q-.114.142-.389.238-.276.094-.731.142-.456.047-1.158.047-.703 0-1.158-.047a3.4 3.4 0 0 1-.731-.142q-.276-.096-.389-.238a.5.5 0 0 1-.114-.332V17.572q0-.19.114-.332.113-.142.389-.247"/></svg>